<?xml version="1.0" encoding="UTF-8"?>
<!DOCTYPE svg PUBLIC "-//W3C//DTD SVG 1.1//EN" "http://www.w3.org/Graphics/SVG/1.1/DTD/svg11.dtd">
<!-- Creator: CorelDRAW X6 -->
<svg xmlns="http://www.w3.org/2000/svg" xml:space="preserve" width="6in" height="3.5in" version="1.1" style="shape-rendering:geometricPrecision; text-rendering:geometricPrecision; image-rendering:optimizeQuality; fill-rule:evenodd; clip-rule:evenodd"
viewBox="0 0 6000 3500"
 xmlns:xlink="http://www.w3.org/1999/xlink">
 <defs>
  <style type="text/css">
   <![CDATA[
    .fil5 {fill:#E6315A}
    .fil4 {fill:#373435;fill-rule:nonzero}
    .fil0 {fill:#E6315A;fill-rule:nonzero}
    .fil2 {fill:#E83248;fill-rule:nonzero}
    .fil1 {fill:#ED3237;fill-rule:nonzero}
    .fil3 {fill:#ED1A21;fill-rule:nonzero}
   ]]>
  </style>
 </defs>
 <g id="Layer_x0020_1">
  <metadata id="CorelCorpID_0Corel-Layer"/>
  <g id="_592952320">
   <path class="fil0" d="M5223 853c13,-126 -70,-263 -232,-214 -44,14 -99,50 -121,109 -19,51 5,74 26,79 95,22 40,-136 159,-167 127,-34 171,114 168,193z"/>
   <path class="fil1" d="M5215 744c16,-125 -188,-325 -350,-279 -45,12 -101,48 -124,106 -20,51 4,74 24,79 94,25 43,-134 162,-163 128,-31 293,179 288,257z"/>
   <path class="fil2" d="M5208 787c20,-125 -117,-265 -281,-224 -45,11 -102,45 -127,103 -21,50 2,74 22,80 94,27 47,-134 167,-159 129,-27 227,121 219,200z"/>
   <path class="fil3" d="M5287 971c-95,-64 -110,-199 -99,-333 7,-91 25,-159 121,-227 51,-36 140,-59 228,-25 76,29 83,78 73,104 -51,124 -205,-100 -327,10 -52,47 -59,99 -65,155 -15,132 2,265 69,316z"/>
   <path class="fil4" d="M744 2224c110,9 251,-110 259,-209 3,-26 -4,-44 -15,-45 -19,-1 -128,132 -171,128 -50,-4 -44,-148 -77,-253 86,-27 176,-100 188,-242 14,-170 -131,-241 -277,-254 -188,-15 -310,115 -313,152 0,8 5,13 13,14 65,5 107,-71 266,-58 114,9 157,68 151,141 -7,90 -38,127 -80,159 -13,-10 -29,-17 -48,-18 -37,-4 -72,8 -75,39 -3,38 27,65 63,75 29,156 -30,359 116,371zm-254 -654c-82,118 -178,377 -190,520 -5,70 3,112 37,114 28,3 53,-10 80,-22 34,-14 47,-44 50,-80l14 -168c4,-48 87,-251 96,-360 3,-31 0,-51 -9,-51 -31,-3 -63,25 -78,47l0 0zm804 553c-39,-1 -100,-17 -98,-80l1 -29c113,-52 248,-66 252,-201 2,-63 -39,-111 -118,-113 -146,-5 -283,149 -291,367 -4,125 86,182 180,185 241,8 322,-159 324,-223 1,-26 -3,-40 -13,-40 -24,-1 -98,138 -237,134zm-7 -323c22,1 32,13 31,30 -1,47 -51,65 -111,106 12,-72 38,-137 80,-136zm679 254l0 -3c18,-77 67,-181 109,-181 32,-1 40,15 40,37 0,68 -23,124 -22,201 0,76 16,150 76,150 114,0 232,-131 231,-230 0,-27 -4,-40 -14,-40 -20,0 -114,138 -155,138 -6,0 -8,-5 -8,-15 0,-37 41,-142 40,-245 0,-74 -40,-119 -115,-119 -71,0 -122,40 -157,87l0 -12c0,-68 -58,-114 -117,-114 -49,0 -89,30 -118,68 -12,-35 -44,-91 -77,-91 -14,0 -28,9 -41,32 -82,137 -83,252 -82,445 0,70 12,112 46,112 8,0 16,-2 24,-6 71,-30 90,-52 90,-81 0,-32 -23,-71 -23,-133 0,-74 74,-224 118,-224 25,0 33,14 33,39 0,48 -15,161 -15,293 0,69 12,112 47,111 7,0 15,-2 24,-5 70,-30 89,-53 89,-82 0,-32 -22,-71 -23,-132l0 0zm564 187c115,-5 227,-141 222,-240 -1,-26 -6,-40 -16,-39 -20,1 -107,143 -148,145 -20,0 -38,-11 -39,-34 -2,-62 40,-194 38,-297 -1,-26 -23,-109 -67,-107 -76,3 -110,227 -104,363 5,116 33,212 114,209zm14 -666c55,-2 124,-42 120,-135 -2,-29 -38,-122 -83,-120 -47,2 -72,105 -70,147 3,63 33,108 33,108zm605 621c114,-11 220,-151 210,-250 -2,-27 -8,-40 -18,-39 -20,2 -100,148 -141,152 -8,1 -12,-6 -13,-18 -4,-44 29,-161 19,-272 -8,-80 -63,-126 -157,-117 -55,5 -93,33 -118,67 -17,-33 -49,-74 -79,-72 -13,2 -26,12 -37,36 -69,142 -60,257 -42,450 7,70 22,111 57,108 7,-1 15,-4 23,-8 68,-36 84,-61 82,-89 -3,-32 -29,-69 -35,-130l0 -8c8,-94 56,-223 111,-228 37,-3 49,13 51,37 7,67 -21,124 -10,243 7,76 32,144 97,138zm564 -613c-21,-3 -44,-1 -63,1 -87,11 -154,80 -194,149 -43,77 -55,174 -44,260 15,109 90,171 187,158 95,-12 143,-65 172,-132 19,61 48,97 88,92 109,-14 223,-161 210,-259 -4,-26 -14,-42 -25,-41 -18,3 -97,156 -140,162 -16,2 -28,-28 -34,-75 -9,-70 -9,-245 4,-350 30,-64 61,-115 53,-198 -4,-26 -49,-104 -93,-98 -52,7 -86,154 -96,334l-25 -3zm30 296c-14,95 -64,138 -111,144 -46,6 -65,-35 -70,-79 -20,-152 75,-259 173,-293 -2,78 -1,157 8,228z"/>
   <path class="fil5" d="M5323 2172c8,-38 -25,-69 -50,-75 -15,-50 -63,-93 -132,-153 -3,-60 35,-124 77,-176 42,-51 54,-62 238,-147 183,-85 204,-194 238,-246 34,-53 150,-137 -127,-305 -58,-35 -105,-67 -145,-94l-2 4c-5,9 -14,19 -27,25 -13,5 -30,5 -51,-6 -25,-13 -68,-71 -98,-145 -11,-27 -20,-56 -27,-87l-78 -53c4,98 48,191 145,277 18,17 34,34 48,51 1,1 1,1 2,1 252,113 300,243 248,361 -34,74 -108,142 -197,196 -88,53 -190,93 -279,112 -14,3 -27,5 -41,7 8,11 14,22 19,33 47,104 21,177 -73,192 -22,4 -41,3 -40,18 0,16 13,16 32,15 50,-2 115,-17 165,50 55,75 21,139 33,139l122 6z"/>
   <path class="fil1" d="M4989 1388c-12,-268 -194,-520 -547,-446 -113,23 -259,102 -326,245 -57,123 0,186 51,203 232,76 127,-331 429,-382 257,-43 362,185 383,379l10 1z"/>
   <path class="fil2" d="M4970 1386c-29,-172 -162,-318 -393,-262 -80,20 -182,80 -226,183 -38,88 4,132 40,142 167,49 83,-238 297,-281 163,-33 243,92 272,217l10 1z"/>
   <path class="fil0" d="M4952 1384c-40,-97 -131,-164 -269,-122 -56,17 -125,63 -152,137 -24,63 7,91 32,97 119,28 50,-169 198,-208 92,-24 149,28 181,94l10 2z"/>
   <path class="fil1" d="M5329 1054c-2,383 -300,383 -505,310 -87,-31 -150,-12 -152,56 -2,50 33,73 154,71 -20,7 -47,25 -37,62 15,60 87,48 129,29 -28,25 -37,45 -32,69 49,235 1206,-255 443,-597z"/>
   <path class="fil0" d="M5218 672c-3,143 89,296 129,317 36,18 54,0 63,-15 38,-65 -45,-78 -115,-150 -81,-84 -61,-81 -77,-152z"/>
   <path class="fil5" d="M5194 637c-40,5 -61,38 -57,79 5,40 41,68 81,62 26,-4 60,-29 145,-2 -42,-80 -52,-84 -77,-109 -22,-22 -52,-36 -92,-30z"/>
   <path class="fil5" d="M5208 625c-45,7 -77,49 -72,94 5,46 46,77 91,70 45,-6 78,-48 73,-94 -6,-45 -46,-76 -92,-70z"/>
   <path class="fil4" d="M616 3044c-4,50 9,90 41,92 52,4 110,-34 114,-92 1,-19 0,-41 -2,-63 20,-188 160,-422 243,-416 23,2 28,23 26,57 -9,116 -104,311 -111,405 -5,64 27,118 100,123 110,8 250,-112 257,-211 2,-27 -5,-44 -15,-45 -19,-2 -127,133 -170,129 -20,-1 -26,-18 -24,-45 5,-64 81,-244 91,-384 8,-97 -17,-175 -119,-183 -69,-5 -124,33 -169,91l1 -9c9,-119 -8,-220 -137,-229 -86,-7 -155,54 -208,144 5,-87 -9,-158 -106,-165 -95,-7 -182,46 -188,129 -2,24 4,33 14,33 41,3 69,-52 108,-49 33,2 40,48 36,96 -3,44 -104,387 -116,546 -5,69 10,112 45,114 27,2 52,-11 79,-23 34,-14 47,-44 49,-81 4,-43 -3,-91 -9,-143 0,-6 2,-14 3,-21 37,-142 138,-436 262,-427 42,3 50,44 46,107 -13,165 -133,419 -141,520zm904 -11c-39,-1 -101,-16 -99,-79l0 -29c113,-53 248,-68 251,-203 1,-64 -41,-111 -120,-113 -146,-3 -282,153 -286,371 -3,125 87,181 182,183 240,5 319,-162 321,-226 0,-27 -3,-41 -14,-41 -24,0 -97,140 -235,137zm-11 -323c22,1 32,12 32,29 -1,47 -51,67 -111,108 12,-72 37,-138 79,-137zm624 -98c-24,32 -26,50 -25,87 0,7 4,11 13,11l47 -2c-14,76 -21,157 -19,225 4,125 35,223 105,221 114,-3 259,-138 256,-237 0,-26 -5,-40 -15,-40 -9,1 -22,11 -37,35 -32,49 -120,108 -145,109 -17,0 -25,-30 -27,-78 -1,-49 4,-156 15,-244 31,-1 89,3 105,3 16,-1 28,-65 27,-80 0,-14 -1,-18 -12,-18 -23,1 -55,0 -104,1l41 -84c-12,-48 -26,-92 -71,-90 -38,1 -71,75 -98,179 -23,1 -43,2 -56,2zm684 -41c-177,13 -275,181 -262,353 9,115 86,220 245,208 83,-7 148,-56 193,-122 21,3 43,4 68,2 70,-5 127,-55 120,-145 -2,-27 -7,-41 -18,-40 -26,2 -35,72 -114,78l-6 1c13,-41 18,-83 15,-121 -5,-70 -43,-121 -111,-116 -90,7 -132,89 -127,156 5,69 36,121 86,153 -21,17 -46,27 -77,29 -75,6 -116,-45 -121,-113 -10,-133 70,-234 190,-243 61,-5 81,-14 81,-25 -3,-33 -84,-61 -162,-55zm124 235c-2,-18 6,-44 18,-45 17,-1 25,16 26,36 2,22 -1,53 -11,82 -20,-18 -31,-44 -33,-73zm1051 181c140,-22 215,-173 201,-263 -4,-26 -11,-42 -22,-41 -30,5 -74,166 -145,177 -67,10 -110,-11 -163,-30 1,-24 0,-49 -4,-73 -12,-78 -20,-156 -22,-226 252,-46 284,-202 272,-286 -18,-118 -102,-138 -187,-125 -119,18 -191,147 -217,321 -36,-4 -70,-23 -97,-19 -9,1 -11,20 -9,33 3,25 46,55 96,73 -5,86 -2,179 13,273 -19,1 -39,3 -61,6 -80,12 -132,59 -121,137 12,75 59,121 144,108 70,-11 120,-50 152,-101 54,25 111,45 170,36zm-56 -756c35,-5 54,11 60,49 8,51 -59,127 -159,151 8,-112 36,-190 99,-200zm-268 731c-16,3 -36,-4 -40,-26 -3,-23 13,-37 33,-40 16,-2 35,1 55,8 -3,32 -13,53 -48,58zm689 -44c113,-23 203,-173 183,-271 -5,-26 -12,-38 -22,-36 -20,3 -84,157 -125,165 -19,4 -38,-5 -43,-27 -12,-61 10,-198 -8,-299 -5,-26 -39,-104 -82,-96 -75,15 -74,241 -48,374 23,115 65,206 145,190zm-87 -660c53,-11 115,-60 97,-152 -5,-28 -56,-115 -100,-106 -46,9 -55,114 -46,156 12,61 49,102 49,102zm437 588c63,-16 117,-115 157,-219 36,35 81,53 133,40 68,-18 117,-73 94,-161 -6,-26 -14,-39 -24,-36 -25,6 -23,77 -99,97 -26,6 -50,-14 -70,-45 34,-114 42,-161 31,-204 -19,-75 -66,-82 -101,-73 -87,22 -91,104 -74,169 9,37 23,77 42,115 -16,79 -36,147 -62,153 -47,12 -62,-76 -90,-169 0,-58 -8,-134 -17,-168 -8,-33 -33,-53 -65,-45 -95,24 -92,78 -71,161 15,62 145,403 216,385zm643 -321c-37,11 -100,17 -119,-43l-9 -27c89,-87 212,-145 172,-274 -20,-61 -75,-91 -150,-68 -139,44 -217,236 -152,444 38,119 141,142 231,114 230,-72 251,-257 232,-318 -8,-25 -16,-36 -26,-33 -23,7 -47,163 -179,205zm-114 -302c21,-7 34,1 40,17 14,45 -27,79 -71,137 -11,-71 -9,-142 31,-154z"/>
  </g>
 </g>
</svg>
