<?xml version="1.0" standalone="yes"?>

<svg version="1.1" viewBox="0.0 0.0 192.0 80.0" fill="none" stroke="none" stroke-linecap="square" stroke-miterlimit="10" xmlns="http://www.w3.org/2000/svg" xmlns:xlink="http://www.w3.org/1999/xlink"><clipPath id="p.0"><path d="m0 0l192.0 0l0 80.0l-192.0 0l0 -80.0z" clip-rule="nonzero"></path></clipPath><g clip-path="url(#p.0)"><path fill="#000000" fill-opacity="0.0" d="m0 0l192.75066 0l0 80.0l-192.75066 0z" fill-rule="nonzero"></path><path fill="#000000" fill-opacity="0.0" d="m-5.661567 -14.478554l145.98424 0l0 46.677166l-145.98424 0z" fill-rule="nonzero"></path><path fill="#ff4c44" d="m20.729057 30.361443l-7.0625 -11.359375q-1.203125 0 -3.828125 -0.1875l0 11.546875l-3.6093745 0l0 -26.46875q0.203125 0 2.8124995 -0.125q2.609375 -0.140625 3.796875 -0.140625q9.546875 0 9.546875 7.578125q0 2.5 -1.546875 4.5q-1.53125 1.984375 -3.640625 2.484375l7.671875 12.171875l-4.140625 0zm-10.890625 -23.21875l0 8.609375q1.3125 0.171875 2.53125 0.171875q3.25 0 4.734375 -1.046875q1.484375 -1.046875 1.484375 -3.734375q0 -2.21875 -1.59375 -3.1875005q-1.59375 -0.984375 -5.015625 -0.984375q-0.546875 0 -2.140625 0.171875zm21.55426 0l0 7.3593755l8.734375 0l0 3.0625l-8.734375 0l0 9.546875l11.984375 0l0 3.25l-15.609375 0l0 -26.46875l15.8125 0l0 3.2499998l-12.1875 0zm36.307114 23.21875l-3.140625 -17.0l-5.78125 17.359375l-0.90625 0l-5.953125 -17.359375l-3.0625 17.0l-3.4375 0l4.953125 -26.46875l1.640625 0l6.3125 19.3125l5.8125 -19.3125l1.625 0l5.359375 26.46875l-3.421875 0zm7.1864166 0l0 -26.46875l3.609375 0l0 26.46875l-3.609375 0zm26.857925 0.359375l-13.671875 -19.34375l0 18.984375l-3.4375 0l0 -26.46875l1.453125 0l13.3125 18.296875l0 -18.296875l3.4375 0l0 26.828125l-1.09375 0zm12.05658 -0.359375l-5.34375 0l0 -26.46875q5.109375 -0.171875 6.53125 -0.171875q5.546875 0 8.78125 3.3749998q3.234375 3.3593755 3.234375 8.953125q0 14.3125 -13.203125 14.3125zm-1.71875 -23.21875l0 19.78125q1.203125 0.1875 3.0 0.1875q3.78125 0 5.953125 -2.84375q2.171875 -2.84375 2.171875 -7.90625q0 -9.390625 -8.4375 -9.390625q-0.5 0 -2.6875 0.171875z" fill-rule="nonzero"></path><path fill="#000000" fill-opacity="0.0" d="m118.2484 -20.973467l84.06299 0l0 42.456696l-84.06299 0z" fill-rule="nonzero"></path><path fill="#5b77ff" d="m147.07652 29.861532l-1.6875 -22.578125q-0.546875 5.7031255 -2.015625 10.65625q-1.46875 4.9375 -3.34375 7.640625q-1.859375 2.6875 -3.8125 3.78125q-1.953125 1.09375 -3.859375 1.09375q-1.15625 0 -1.78125 -0.46875q-0.625 -0.46875 -0.625 -1.140625q0 -0.578125 0.453125 -0.984375q0.453125 -0.421875 1.140625 -0.421875q0.515625 0 1.453125 0.21875q0.859375 0.234375 1.4375 0.234375q0.984375 0 2.046875 -0.734375q1.625 -1.09375 3.203125 -3.90625q1.59375 -2.828125 2.84375 -7.874999q1.25 -5.0625 1.5625 -9.859375q-4.765625 0 -7.75 2.375q-2.375 1.8750005 -2.375 4.2187505q0 1.015625 1.140625 2.46875q0.609375 0.78125 0.609375 1.265625q0 0.54687405 -0.359375 0.90624905q-0.34375 0.34375 -0.828125 0.34375q-0.8125 0 -1.4375 -0.921875q-0.875 -1.234374 -0.875 -2.937499q0 -2.390625 1.609375 -4.578125q1.609375 -2.2031255 4.453125 -3.3437505q2.84375 -1.140625 6.671875 -1.171875q2.046875 0 3.296875 -0.37499976q-0.0625 1.8906248 -0.0625 2.0312498q0 0.203125 0.0625 0.875l1.234375 15.953125q5.0625 -8.843749 9.890625 -14.546874q3.421875 -4.0625005 5.96875 -5.484375q-1.453125 3.9843748 -3.109375 10.515625l-2.5625 10.078124q-0.21875 0.84375 -0.578125 2.453125l-0.5 2.25q1.59375 0.375 2.921875 0.375q1.078125 0 2.28125 -0.25l-0.265625 1.21875q-1.078125 0.1875 -1.65625 0.1875q-0.859375 0 -2.484375 -0.1875q-1.3125 -0.171875 -2.34375 -0.171875q-1.09375 0 -2.484375 0.421875q1.15625 -3.015625 2.421875 -8.125l1.609375 -6.421874q1.03125 -4.15625 1.78125 -5.703125q-1.671875 1.90625 -5.171875 6.999999q-2.828125 4.125 -6.3125 10.421875l-1.8125 3.203125zm43.543335 -21.015625l-1.109375 0q0.171875 -1.0625005 0.171875 -1.7031255q0 -0.828125 -0.703125 -1.09375q-0.703125 -0.265625 -5.3125 -0.265625l-3.0625 0.015625l-2.328125 9.28125l4.34375 0q2.0625 0 2.53125 -0.296875q0.46875 -0.3125 0.6875 -1.515625l1.1875 0q-0.671875 2.53125 -1.1875 5.578124l-1.078125 0q0.109375 -0.984375 0.109375 -1.53125q0 -0.234375 -0.296875 -0.5625q-0.140625 -0.171875 -0.546875 -0.234375q-0.5625 -0.109375 -1.765625 -0.109375l-4.296875 0q-1.875 7.140625 -3.890625 11.1875q1.953125 -0.609375 3.46875 -0.609375q2.515625 0 6.171875 0.796875q1.9375 0.453125 2.625 0.453125q0.921875 0 1.484375 -0.46875q0.578125 -0.46875 0.578125 -1.046875q0 -0.34375 -0.28125 -1.09375q-0.171875 -0.53125 -0.171875 -0.984375q0 -0.484375 0.390625 -0.859375q0.390625 -0.375 0.9375 -0.375q0.65625 0 1.078125 0.5q0.4375 0.5 0.4375 1.34375q0 1.78125 -1.5625 3.125q-1.5625 1.34375 -4.125 1.34375q-1.34375 0 -3.40625 -0.234375q-4.515625 -0.5 -6.890625 -0.5q-3.109375 0 -7.265625 0.5l0.34375 -1.15625q2.46875 -0.6875 2.90625 -1.015625q0.453125 -0.328125 0.75 -0.953125q1.0 -2.0 2.609375 -8.0q1.609375 -5.999999 3.265625 -12.6875q-2.515625 0 -4.765625 1.203125q-2.25 1.2031255 -3.515625 3.1250005q-1.25 1.921875 -1.25 4.03125q0 0.90625 0.171875 1.578125q0.1875 0.67187405 0.8125 1.890624q0.390625 0.734375 0.390625 1.203125q0 0.453125 -0.390625 0.8125q-0.375 0.359375 -0.953125 0.359375q-0.8125 0 -1.296875 -0.828125q-0.71875 -1.1875 -0.71875 -3.249999q0 -4.40625 3.34375 -7.9062505q3.34375 -3.515625 9.71875 -3.515625l7.203125 0q3.734375 0 5.53125 -0.48437476q-0.84375 3.4843748 -1.078125 4.953125z" fill-rule="nonzero"></path><path fill="#000000" fill-opacity="0.0" d="m-3.3578014 13.157106l84.062996 0l0 52.377953l-84.062996 0z" fill-rule="nonzero"></path><path fill="#ffb32c" d="m32.517197 42.557728q0 0.515625 -0.0625 0.90625q-0.046875 0.375 -0.171875 0.609375q-0.109375 0.234375 -0.2968731 0.34375q-0.171875 0.109375 -0.390625 0.109375l-9.953125 0l0 30.671879q0 0.21875 -0.109375 0.390625q-0.109375 0.15625 -0.390625 0.265625q-0.265625 0.09375 -0.71875 0.15625q-0.453125 0.078125 -1.140625 0.078125q-0.65625 0 -1.125 -0.078125q-0.453125 -0.0625 -0.734375 -0.15625q-0.265625 -0.109375 -0.375 -0.265625q-0.109375 -0.171875 -0.109375 -0.390625l0 -30.671879l-9.953125 0q-0.21875 0 -0.40625 -0.109375q-0.171875 -0.109375 -0.28125 -0.34375q-0.109375 -0.234375 -0.1875 -0.609375q-0.0625 -0.390625 -0.0625 -0.90625q0 -0.515625 0.0625 -0.90625q0.078125 -0.40625 0.1875 -0.65625q0.109375 -0.25 0.28125 -0.359375q0.1875 -0.109375 0.40625 -0.109375l24.609375 0q0.21875 0 0.390625 0.109375q0.1874981 0.109375 0.2968731 0.359375q0.125 0.25 0.171875 0.65625q0.0625 0.390625 0.0625 0.90625zm34.757812 15.25q0 4.296875 -1.015625 7.750004q-1.0 3.4375 -3.015625 5.859375q-2.015625 2.421875 -5.046875 3.71875q-3.03125 1.296875 -7.078125 1.296875q-4.0 0 -6.90625 -1.1875q-2.90625 -1.1875 -4.8125 -3.453125q-1.90625 -2.28125 -2.84375 -5.640625q-0.921875 -3.3593788 -0.921875 -7.734379q0 -4.1875 1.015625 -7.59375q1.015625 -3.421875 3.03125 -5.8125q2.03125 -2.40625 5.0625 -3.703125q3.03125 -1.296875 7.078125 -1.296875q3.921875 0 6.8125 1.1875q2.90625 1.171875 4.828125 3.421875q1.921875 2.25 2.859375 5.578125q0.953125 3.328125 0.953125 7.609375zm-4.953125 0.328125q0 -3.0 -0.53125 -5.578125q-0.53125 -2.59375 -1.78125 -4.484375q-1.234375 -1.90625 -3.3125 -2.96875q-2.078125 -1.078125 -5.140625 -1.078125q-3.0625 0 -5.140625 1.15625q-2.078125 1.140625 -3.375 3.0625q-1.296875 1.90625 -1.859375 4.46875q-0.5625 2.5625 -0.5625 5.375q0 3.109375 0.515625 5.734375q0.515625 2.6250038 1.75 4.531254q1.234375 1.90625 3.296875 2.953125q2.0625 1.046875 5.1875 1.046875q3.078125 0 5.1875 -1.140625q2.109375 -1.15625 3.390625 -3.109375q1.28125 -1.953125 1.828125 -4.515629q0.546875 -2.578125 0.546875 -5.453125z" fill-rule="nonzero"></path><path fill="#000000" fill-opacity="0.0" d="m67.49662 18.672655l145.98425 0l0 52.377953l-145.98425 0z" fill-rule="nonzero"></path><path fill="#ff59f5" d="m78.43412 76.31265l0 -2.140625l0.65625 0q0.875 0 1.625 -0.125q0.765625 -0.125 1.328125 -0.5q0.578125 -0.390625 0.90625 -1.109375q0.328125 -0.734375 0.328125 -1.921875l0 -24.812496q0 -1.1875 -0.328125 -1.90625q-0.328125 -0.734375 -0.90625 -1.109375q-0.5625 -0.390625 -1.328125 -0.515625q-0.75 -0.125 -1.625 -0.125l-0.65625 0l0 -2.140625l14.84375 0l0 2.140625l-0.671875 0q-0.84375 0 -1.609375 0.109375q-0.75 0.109375 -1.328125 0.484375q-0.578125 0.375 -0.921875 1.0625q-0.328125 0.6875 -0.328125 1.8125l0 28.249996l10.0625 0q1.15625 0 1.953125 -0.40625q0.8125 -0.40625 1.328125 -1.0625q0.53125 -0.671875 0.8125 -1.484375q0.296875 -0.828125 0.390625 -1.640625l0.5 -3.8125l2.671875 0l-0.359375 10.953125l-27.34375 0zm31.561218 0l0 -2.140625l0.65625 0q0.875 0 1.625 -0.125q0.765625 -0.125 1.328125 -0.5q0.578125 -0.390625 0.90625 -1.109375q0.328125 -0.734375 0.328125 -1.921875l0 -24.812496q0 -1.1875 -0.328125 -1.90625q-0.328125 -0.734375 -0.90625 -1.109375q-0.5625 -0.390625 -1.328125 -0.515625q-0.75 -0.125 -1.625 -0.125l-0.65625 0l0 -2.140625l14.84375 0l0 2.140625l-0.671875 0q-0.84375 0 -1.625 0.125q-0.765625 0.125 -1.328125 0.515625q-0.5625 0.375 -0.90625 1.109375q-0.328125 0.71875 -0.328125 1.90625l0 24.812496q0 1.1875 0.328125 1.921875q0.34375 0.71875 0.90625 1.109375q0.5625 0.375 1.328125 0.5q0.78125 0.125 1.625 0.125l0.671875 0l0 2.140625l-14.84375 0zm31.95971 0l-11.015625 -31.578121q-0.265625 -0.796875 -0.59375 -1.3125q-0.328125 -0.53125 -0.75 -0.828125q-0.421875 -0.296875 -0.96875 -0.421875q-0.546875 -0.125 -1.2968674 -0.125l-0.671875 0l0 -2.140625l14.015617 0l0 2.140625l-1.171875 0q-1.53125 0 -2.296875 0.59375q-0.765625 0.578125 -0.765625 1.84375q0 0.421875 0.109375 0.875q0.125 0.453125 0.3125 1.015625l5.609375 16.5625q0.765625 2.2656212 1.3125 4.406246q0.5625 2.125 0.984375 3.96875q0.390625 -1.84375 0.9375 -3.90625q0.546875 -2.078125 1.390625 -4.468746l5.640625 -16.203125q0.1875 -0.625 0.3125 -1.203125q0.125 -0.578125 0.125 -1.0q0 -1.3125 -0.828125 -1.890625q-0.828125 -0.59375 -2.53125 -0.59375l-1.171875 0l0 -2.140625l12.4375 0l0 2.140625l-0.984375 0q-0.734375 0 -1.28125 0.15625q-0.53125 0.140625 -0.96875 0.578125q-0.4375 0.4375 -0.8125 1.21875q-0.375 0.765625 -0.796875 2.0l-10.546875 30.312496l-3.734375 0zm30.808075 -2.546875l9.84375 0q1.21875 0 2.078125 -0.328125q0.859375 -0.34375 1.421875 -0.90625q0.578125 -0.578125 0.90625 -1.328125q0.328125 -0.765625 0.453125 -1.609375l0.34375 -2.203125l2.671875 0l-0.359375 8.921875l-27.34375 0l0 -2.140625l0.65625 0q0.84375 0 1.59375 -0.109375q0.765625 -0.109375 1.328125 -0.453125q0.578125 -0.359375 0.921875 -1.046875q0.34375 -0.6875 0.34375 -1.796875l0 -25.062496q0 -1.1875 -0.328125 -1.90625q-0.328125 -0.734375 -0.90625 -1.109375q-0.5625 -0.390625 -1.328125 -0.515625q-0.75 -0.125 -1.625 -0.125l-0.65625 0l0 -2.140625l25.703125 0l0.25 8.90625l-2.640625 0l-0.25 -2.1875q-0.09375 -0.84375 -0.390625 -1.59375q-0.28125 -0.765625 -0.8125 -1.328125q-0.53125 -0.578125 -1.34375 -0.921875q-0.8125 -0.34375 -1.953125 -0.34375l-8.578125 0l0 13.578125l12.3125 0l0 2.484375l-12.3125 0l0 15.265621z" fill-rule="nonzero"></path></g></svg>

